<?xml version="1.0" encoding="UTF-8"?>
<!DOCTYPE svg PUBLIC "-//W3C//DTD SVG 1.1//EN" "http://www.w3.org/Graphics/SVG/1.1/DTD/svg11.dtd">
<svg xmlns="http://www.w3.org/2000/svg" version="1.1" width="286px" height="286px" style="shape-rendering:geometricPrecision; text-rendering:geometricPrecision; image-rendering:optimizeQuality; fill-rule:evenodd; clip-rule:evenodd" xmlns:xlink="http://www.w3.org/1999/xlink">
<g><path style="opacity:1" fill="#04a1f8" d="M 162.5,33.5 C 161.524,34.8149 160.524,36.1482 159.5,37.5C 160.391,38.5896 161.391,38.5896 162.5,37.5C 167.433,45.7253 170.433,55.2253 171.5,66C 171.523,70.5683 171.023,75.0683 170,79.5C 168.688,81.6576 167.022,81.9909 165,80.5C 162.616,82.8792 161.116,85.7125 160.5,89C 162.759,90.9349 163.759,93.4349 163.5,96.5C 162.5,96.5 161.5,96.5 160.5,96.5C 160.167,100.5 159.833,100.5 159.5,96.5C 157.692,96.4914 156.025,96.9914 154.5,98C 157.402,99.36 159.068,101.193 159.5,103.5C 158.101,104.89 156.434,105.89 154.5,106.5C 155.29,105.206 156.29,104.039 157.5,103C 150.261,100.429 144.095,96.2627 139,90.5C 132.411,82.5351 127.911,73.5351 125.5,63.5C 125.223,60.5525 125.556,57.7191 126.5,55C 124.269,52.5302 124.269,50.1969 126.5,48C 125.409,45.9361 125.242,43.7695 126,41.5C 127.092,38.9556 127.759,36.2889 128,33.5C 129.757,32.8811 130.924,31.7144 131.5,30C 130.547,25.8811 132.047,22.7144 136,20.5C 136.579,19.0715 136.412,17.7382 135.5,16.5C 137.001,13.1039 139.335,12.6039 142.5,15C 150.317,19.9862 156.984,26.1529 162.5,33.5 Z"/></g>
<g><path style="opacity:1" fill="#339edc" d="M 118.5,38.5 C 116.517,37.2943 114.517,35.961 112.5,34.5C 107.214,37.1398 106.214,40.9731 109.5,46C 108.748,46.6708 108.414,47.5041 108.5,48.5C 106.983,46.5379 106.316,44.2046 106.5,41.5C 106.293,38.1682 107.126,35.1682 109,32.5C 113.731,31.6891 116.898,33.6891 118.5,38.5 Z"/></g>
<g><path style="opacity:1" fill="#29a0e4" d="M 135.5,16.5 C 136.412,17.7382 136.579,19.0715 136,20.5C 132.047,22.7144 130.547,25.8811 131.5,30C 130.924,31.7144 129.757,32.8811 128,33.5C 127.759,36.2889 127.092,38.9556 126,41.5C 125.242,43.7695 125.409,45.9361 126.5,48C 124.269,50.1969 124.269,52.5302 126.5,55C 125.556,57.7191 125.223,60.5525 125.5,63.5C 125.167,63.5 124.833,63.5 124.5,63.5C 121.804,48.6818 123.97,34.6818 131,21.5C 132.049,19.3825 133.549,17.7158 135.5,16.5 Z"/></g>
<g><path style="opacity:1" fill="#13a0f3" d="M 118.5,38.5 C 121.271,43.8063 121.104,49.1397 118,54.5C 113.302,55.3568 110.136,53.3568 108.5,48.5C 108.414,47.5041 108.748,46.6708 109.5,46C 106.214,40.9731 107.214,37.1398 112.5,34.5C 114.517,35.961 116.517,37.2943 118.5,38.5 Z"/></g>
<g><path style="opacity:1" fill="#0b9ff6" d="M 178.5,47.5 C 178.229,45.6203 178.896,44.287 180.5,43.5C 180.47,44.4972 180.97,45.1639 182,45.5C 183.338,44.4939 184.671,43.4939 186,42.5C 186.617,43.4491 186.451,44.2825 185.5,45C 186.308,45.3076 186.975,45.8076 187.5,46.5C 186.5,47.8333 185.5,49.1667 184.5,50.5C 185.582,50.7486 186.915,50.9152 188.5,51C 187.289,52.1131 187.289,53.2798 188.5,54.5C 187.167,56.1667 185.833,57.8333 184.5,59.5C 183.522,59.0233 182.689,58.3567 182,57.5C 181.282,58.4506 180.449,58.6172 179.5,58C 178.398,55.5991 178.231,53.0991 179,50.5C 179.29,52.0441 179.956,53.3774 181,54.5C 182.31,52.7074 182.81,50.8741 182.5,49C 181.255,48.2086 179.922,47.7086 178.5,47.5 Z"/></g>
<g><path style="opacity:1" fill="#18a2f0" d="M 80.5,34.5 C 94.0032,34.1945 101.837,40.5278 104,53.5C 92.5951,57.5683 83.5951,54.5683 77,44.5C 75.7241,41.6337 75.5574,38.8003 76.5,36C 78.0581,35.79 79.3915,35.29 80.5,34.5 Z"/></g>
<g><path style="opacity:1" fill="#e35434" d="M 224.5,65.5 C 224.666,61.4862 224.499,57.4862 224,53.5C 221.564,51.5327 219.064,49.866 216.5,48.5C 219.301,44.3534 221.801,44.6867 224,49.5C 226.31,54.2661 226.977,59.2661 226,64.5C 225.617,65.056 225.117,65.3893 224.5,65.5 Z"/></g>
<g><path style="opacity:1" fill="#2a9ee4" d="M 178.5,47.5 C 179.922,47.7086 181.255,48.2086 182.5,49C 182.81,50.8741 182.31,52.7074 181,54.5C 179.956,53.3774 179.29,52.0441 179,50.5C 178.231,53.0991 178.398,55.5991 179.5,58C 180.449,58.6172 181.282,58.4506 182,57.5C 182.689,58.3567 183.522,59.0233 184.5,59.5C 185.833,57.8333 187.167,56.1667 188.5,54.5C 187.289,53.2798 187.289,52.1131 188.5,51C 186.915,50.9152 185.582,50.7486 184.5,50.5C 185.5,49.1667 186.5,47.8333 187.5,46.5C 186.975,45.8076 186.308,45.3076 185.5,45C 186.451,44.2825 186.617,43.4491 186,42.5C 184.671,43.4939 183.338,44.4939 182,45.5C 180.97,45.1639 180.47,44.4972 180.5,43.5C 184.388,37.9107 187.555,38.244 190,44.5C 192.079,53.3397 189.079,59.6731 181,63.5C 176.232,58.6679 175.398,53.3346 178.5,47.5 Z"/></g>
<g><path style="opacity:1" fill="#e05435" d="M 215.5,48.5 C 214.588,50.5952 213.421,52.5952 212,54.5C 211.814,56.9005 211.314,59.2338 210.5,61.5C 209.824,60.3984 209.158,59.3984 208.5,58.5C 209.359,54.1081 211.693,50.7747 215.5,48.5 Z"/></g>
<g><path style="opacity:1" fill="#f44417" d="M 215.5,48.5 C 215.833,48.5 216.167,48.5 216.5,48.5C 219.064,49.866 221.564,51.5327 224,53.5C 224.499,57.4862 224.666,61.4862 224.5,65.5C 224.5,65.8333 224.5,66.1667 224.5,66.5C 222.186,68.8297 220.186,71.4963 218.5,74.5C 215.545,76.09 212.878,75.7567 210.5,73.5C 208.887,71.5717 207.887,69.2383 207.5,66.5C 207.811,63.8036 208.145,61.1369 208.5,58.5C 209.158,59.3984 209.824,60.3984 210.5,61.5C 211.314,59.2338 211.814,56.9005 212,54.5C 213.421,52.5952 214.588,50.5952 215.5,48.5 Z"/></g>
<g><path style="opacity:1" fill="#d05743" d="M 224.5,66.5 C 223.921,70.3607 221.921,73.0274 218.5,74.5C 220.186,71.4963 222.186,68.8297 224.5,66.5 Z"/></g>
<g><path style="opacity:1" fill="#a6403a" d="M 198.5,70.5 C 196.521,68.8325 194.188,68.1658 191.5,68.5C 192.659,66.6231 194.326,66.1231 196.5,67C 197.823,67.8159 198.489,68.9826 198.5,70.5 Z"/></g>
<g><path style="opacity:1" fill="#c857e9" d="M 72.5,68.5 C 75.5,69.5 77.5,71.5 78.5,74.5C 78.8588,76.7659 78.1922,78.5993 76.5,80C 67.5355,80.54 62.2022,76.3734 60.5,67.5C 64.6285,66.1976 68.6285,66.5309 72.5,68.5 Z"/></g>
<g><path style="opacity:1" fill="#1b6dd5" d="M 124.5,63.5 C 124.833,63.5 125.167,63.5 125.5,63.5C 127.911,73.5351 132.411,82.5351 139,90.5C 144.095,96.2627 150.261,100.429 157.5,103C 156.29,104.039 155.29,105.206 154.5,106.5C 153.833,106.5 153.167,106.5 152.5,106.5C 153.796,102.967 152.629,101.967 149,103.5C 148.758,101.862 147.925,100.362 146.5,99C 143.435,98.6317 140.768,97.465 138.5,95.5C 137.489,93.6284 136.655,91.6284 136,89.5C 132.02,84.8873 128.52,79.8873 125.5,74.5C 125.833,73.8333 126.167,73.1667 126.5,72.5C 124.924,70.0207 123.924,67.354 123.5,64.5C 122.167,64.5 120.833,64.5 119.5,64.5C 112.492,64.3337 105.492,64.5004 98.5,65C 95.495,66.1697 92.495,67.3364 89.5,68.5C 92.3947,71.2625 93.0613,74.0959 91.5,77C 92.6148,79.695 93.9482,82.195 95.5,84.5C 95.0618,84.4346 94.7284,84.6012 94.5,85C 95.8228,85.8159 96.4894,86.9826 96.5,88.5C 93.2867,85.1012 90.7867,81.1012 89,76.5C 88.6253,73.9999 87.7919,71.6666 86.5,69.5C 86.9186,68.3279 87.5853,67.3279 88.5,66.5C 91.3406,65.0254 94.3406,63.8587 97.5,63C 106.527,62.2841 115.527,62.4507 124.5,63.5 Z"/></g>
<g><path style="opacity:1" fill="#b569d4" d="M 72.5,68.5 C 68.6285,66.5309 64.6285,66.1976 60.5,67.5C 62.2022,76.3734 67.5355,80.54 76.5,80C 78.1922,78.5993 78.8588,76.7659 78.5,74.5C 80.9333,76.7078 80.9333,78.8745 78.5,81C 74.5383,82.371 70.5383,82.0377 66.5,80C 61.6062,76.698 58.9396,72.198 58.5,66.5C 62.4968,65.2628 66.4968,65.2628 70.5,66.5C 71.7133,66.7472 72.38,67.4138 72.5,68.5 Z"/></g>
<g><path style="opacity:1" fill="#d35344" d="M 210.5,73.5 C 212.878,75.7567 215.545,76.09 218.5,74.5C 214.987,79.9463 212.32,79.613 210.5,73.5 Z"/></g>
<g><path style="opacity:1" fill="#e45d3b" d="M 230.5,75.5 C 232.861,75.6741 235.194,76.0074 237.5,76.5C 237.376,80.7483 235.71,84.0817 232.5,86.5C 233.841,83.3956 233.507,80.5623 231.5,78C 231.833,77.6667 232.167,77.3333 232.5,77C 231.584,76.7216 230.918,76.2216 230.5,75.5 Z"/></g>
<g><path style="opacity:1" fill="#107af3" d="M 152.5,106.5 C 136.226,112.056 120.892,109.89 106.5,100C 102.561,96.5706 99.2281,92.7372 96.5,88.5C 96.4894,86.9826 95.8228,85.8159 94.5,85C 94.7284,84.6012 95.0618,84.4346 95.5,84.5C 97.3786,84.6068 97.7119,84.1068 96.5,83C 98.7775,81.2609 100.444,81.7609 101.5,84.5C 98.6708,85.825 98.0042,87.825 99.5,90.5C 101.878,86.0498 105.045,82.3832 109,79.5C 110.434,85.1939 112.267,85.5272 114.5,80.5C 117.52,82.5232 119.854,85.1898 121.5,88.5C 123.078,89.2978 124.744,89.7978 126.5,90C 127.833,91 127.833,92 126.5,93C 123.5,93.3333 120.5,93.6667 117.5,94C 119.007,94.8373 119.507,96.0039 119,97.5C 118.667,97.1667 118.333,96.8333 118,96.5C 116.559,97.2598 115.059,97.9264 113.5,98.5C 111.86,96.8604 110.194,95.1937 108.5,93.5C 107.614,94.325 107.281,95.325 107.5,96.5C 108.552,96.3505 109.552,96.5172 110.5,97C 109.167,97.6667 109.167,98.3333 110.5,99C 113.335,99.784 116.001,100.117 118.5,100C 114.534,101.721 114.534,103.388 118.5,105C 123.526,103.575 128.359,103.075 133,103.5C 134.762,103.944 134.595,104.444 132.5,105C 134.585,105.529 136.418,105.029 138,103.5C 142.34,106.257 147.174,107.257 152.5,106.5 Z"/></g>
<g><path style="opacity:1" fill="#27a1eb" d="M 162.5,33.5 C 173.686,49.9498 176.186,67.6164 170,86.5C 167.49,92.8683 163.99,98.535 159.5,103.5C 159.068,101.193 157.402,99.36 154.5,98C 156.025,96.9914 157.692,96.4914 159.5,96.5C 159.833,100.5 160.167,100.5 160.5,96.5C 161.5,96.5 162.5,96.5 163.5,96.5C 163.759,93.4349 162.759,90.9349 160.5,89C 161.116,85.7125 162.616,82.8792 165,80.5C 167.022,81.9909 168.688,81.6576 170,79.5C 171.023,75.0683 171.523,70.5683 171.5,66C 170.433,55.2253 167.433,45.7253 162.5,37.5C 161.391,38.5896 160.391,38.5896 159.5,37.5C 160.524,36.1482 161.524,34.8149 162.5,33.5 Z"/></g>
<g><path style="opacity:1" fill="#f24618" d="M 230.5,75.5 C 230.918,76.2216 231.584,76.7216 232.5,77C 232.167,77.3333 231.833,77.6667 231.5,78C 233.507,80.5623 233.841,83.3956 232.5,86.5C 231.735,88.929 230.069,90.2623 227.5,90.5C 223.833,90.5 220.167,90.5 216.5,90.5C 216.5,88.5 216.5,86.5 216.5,84.5C 219.484,79.0013 224.15,76.0013 230.5,75.5 Z"/></g>
<g><path style="opacity:1" fill="#c32f11" d="M 191.5,68.5 C 194.188,68.1658 196.521,68.8325 198.5,70.5C 201.277,72.9505 203.277,75.9505 204.5,79.5C 206.285,84.7161 207.118,90.0494 207,95.5C 204.72,97.0367 202.22,98.2033 199.5,99C 197.644,101.69 195.311,103.856 192.5,105.5C 189.812,110.612 186.979,115.612 184,120.5C 183.047,123.432 182.547,126.432 182.5,129.5C 183.675,129.719 184.675,129.386 185.5,128.5C 186.778,124.957 188.778,121.957 191.5,119.5C 189.626,123.94 187.459,128.273 185,132.5C 183.208,137 182.375,141.667 182.5,146.5C 177.533,142.543 174.2,137.543 172.5,131.5C 172.142,127.491 171.642,123.491 171,119.5C 170.26,117.681 169.093,116.348 167.5,115.5C 167.5,115.167 167.5,114.833 167.5,114.5C 168.158,113.602 168.824,112.602 169.5,111.5C 170.247,104.447 171.247,97.4472 172.5,90.5C 175.99,80.6792 182.323,73.3458 191.5,68.5 Z"/></g>
<g><path style="opacity:1" fill="#bf64df" d="M 78.5,88.5 C 68.2023,87.4645 57.869,87.4645 47.5,88.5C 47.6107,87.8826 47.944,87.3826 48.5,87C 57.8382,85.0939 67.1716,85.0939 76.5,87C 77.4158,87.2784 78.0825,87.7784 78.5,88.5 Z"/></g>
<g><path style="opacity:1" fill="#0061d6" d="M 119.5,64.5 C 120.833,64.5 122.167,64.5 123.5,64.5C 123.924,67.354 124.924,70.0207 126.5,72.5C 126.167,73.1667 125.833,73.8333 125.5,74.5C 128.52,79.8873 132.02,84.8873 136,89.5C 136.655,91.6284 137.489,93.6284 138.5,95.5C 133.917,91.759 129.417,87.759 125,83.5C 124.055,79.8676 122.888,76.3676 121.5,73C 121.585,71.8926 121.919,70.8926 122.5,70C 119.965,69.0718 118.965,67.2385 119.5,64.5 Z"/></g>
<g><path style="opacity:1" fill="#0176f7" d="M 119.5,64.5 C 118.965,67.2385 119.965,69.0718 122.5,70C 121.919,70.8926 121.585,71.8926 121.5,73C 122.888,76.3676 124.055,79.8676 125,83.5C 129.417,87.759 133.917,91.759 138.5,95.5C 140.768,97.465 143.435,98.6317 146.5,99C 147.925,100.362 148.758,101.862 149,103.5C 152.629,101.967 153.796,102.967 152.5,106.5C 147.174,107.257 142.34,106.257 138,103.5C 136.418,105.029 134.585,105.529 132.5,105C 134.595,104.444 134.762,103.944 133,103.5C 128.359,103.075 123.526,103.575 118.5,105C 114.534,103.388 114.534,101.721 118.5,100C 116.001,100.117 113.335,99.784 110.5,99C 109.167,98.3333 109.167,97.6667 110.5,97C 109.552,96.5172 108.552,96.3505 107.5,96.5C 107.281,95.325 107.614,94.325 108.5,93.5C 110.194,95.1937 111.86,96.8604 113.5,98.5C 115.059,97.9264 116.559,97.2598 118,96.5C 118.333,96.8333 118.667,97.1667 119,97.5C 119.507,96.0039 119.007,94.8373 117.5,94C 120.5,93.6667 123.5,93.3333 126.5,93C 127.833,92 127.833,91 126.5,90C 124.744,89.7978 123.078,89.2978 121.5,88.5C 119.854,85.1898 117.52,82.5232 114.5,80.5C 112.267,85.5272 110.434,85.1939 109,79.5C 105.045,82.3832 101.878,86.0498 99.5,90.5C 98.0042,87.825 98.6708,85.825 101.5,84.5C 100.444,81.7609 98.7775,81.2609 96.5,83C 97.7119,84.1068 97.3786,84.6068 95.5,84.5C 93.9482,82.195 92.6148,79.695 91.5,77C 93.0613,74.0959 92.3947,71.2625 89.5,68.5C 92.495,67.3364 95.495,66.1697 98.5,65C 105.492,64.5004 112.492,64.3337 119.5,64.5 Z"/></g>
<g><path style="opacity:1" fill="#db6756" d="M 216.5,84.5 C 216.5,86.5 216.5,88.5 216.5,90.5C 220.167,90.5 223.833,90.5 227.5,90.5C 227.389,91.1174 227.056,91.6174 226.5,92C 222.775,92.7599 219.108,92.5932 215.5,91.5C 214.164,88.8589 214.498,86.5255 216.5,84.5 Z"/></g>
<g><path style="opacity:1" fill="#cb57ec" d="M 78.5,88.5 C 92.8778,91.8808 103.878,99.8808 111.5,112.5C 109.38,116.454 106.38,119.621 102.5,122C 90.4006,129.924 77.0673,133.758 62.5,133.5C 45.707,131.427 31.8736,123.76 21,110.5C 20.6397,108.579 19.8064,106.912 18.5,105.5C 26.472,96.7338 36.1386,91.0672 47.5,88.5C 57.869,87.4645 68.2023,87.4645 78.5,88.5 Z"/></g>
<g><path style="opacity:1" fill="#df5236" d="M 259.5,96.5 C 249.162,95.8665 238.829,95.1998 228.5,94.5C 228.918,93.7784 229.584,93.2784 230.5,93C 240.713,91.5312 250.379,92.6979 259.5,96.5 Z"/></g>
<g><path style="opacity:1" fill="#f24313" d="M 228.5,94.5 C 238.829,95.1998 249.162,95.8665 259.5,96.5C 260.299,99.4299 260.632,102.43 260.5,105.5C 259.883,105.611 259.383,105.944 259,106.5C 257.862,110.121 257.028,113.788 256.5,117.5C 256.5,117.833 256.5,118.167 256.5,118.5C 254.001,120.486 251.334,122.319 248.5,124C 249.324,127.692 247.658,129.525 243.5,129.5C 243.66,131.199 243.494,132.866 243,134.5C 240.929,135.103 239.762,136.436 239.5,138.5C 233.413,143.71 226.413,147.043 218.5,148.5C 212.968,149.052 207.801,148.052 203,145.5C 199.197,147.926 195.03,148.926 190.5,148.5C 190.167,148.5 189.833,148.5 189.5,148.5C 187.485,147.076 185.152,146.41 182.5,146.5C 182.375,141.667 183.208,137 185,132.5C 187.459,128.273 189.626,123.94 191.5,119.5C 196.932,111.731 203.599,105.398 211.5,100.5C 216.44,96.8359 222.107,94.8359 228.5,94.5 Z"/></g>
<g><path style="opacity:1" fill="#c3534f" d="M 259.5,96.5 C 260.5,96.5 261.5,96.5 262.5,96.5C 262.785,99.8291 262.118,102.829 260.5,105.5C 260.632,102.43 260.299,99.4299 259.5,96.5 Z"/></g>
<g><path style="opacity:1" fill="#be3e2f" d="M 172.5,90.5 C 171.247,97.4472 170.247,104.447 169.5,111.5C 168.824,112.602 168.158,113.602 167.5,114.5C 167.596,108.802 168.096,103.135 169,97.5C 169.898,94.9309 171.065,92.5976 172.5,90.5 Z"/></g>
<g><path style="opacity:1" fill="#db5c3f" d="M 260.5,105.5 C 260.268,109.942 258.935,113.942 256.5,117.5C 257.028,113.788 257.862,110.121 259,106.5C 259.383,105.944 259.883,105.611 260.5,105.5 Z"/></g>
<g><path style="opacity:1" fill="#a8270f" d="M 204.5,79.5 C 205.117,79.6107 205.617,79.944 206,80.5C 208.157,87.2098 209.99,93.8764 211.5,100.5C 203.599,105.398 196.932,111.731 191.5,119.5C 188.778,121.957 186.778,124.957 185.5,128.5C 184.675,129.386 183.675,129.719 182.5,129.5C 182.547,126.432 183.047,123.432 184,120.5C 186.979,115.612 189.812,110.612 192.5,105.5C 195.311,103.856 197.644,101.69 199.5,99C 202.22,98.2033 204.72,97.0367 207,95.5C 207.118,90.0494 206.285,84.7161 204.5,79.5 Z"/></g>
<g><path style="opacity:1" fill="#b63c2f" d="M 167.5,115.5 C 169.093,116.348 170.26,117.681 171,119.5C 171.642,123.491 172.142,127.491 172.5,131.5C 171.027,129.417 169.86,127.084 169,124.5C 168.741,121.413 168.241,118.413 167.5,115.5 Z"/></g>
<g><path style="opacity:1" fill="#e35430" d="M 256.5,118.5 C 252.62,126.711 246.954,133.378 239.5,138.5C 239.762,136.436 240.929,135.103 243,134.5C 243.494,132.866 243.66,131.199 243.5,129.5C 247.658,129.525 249.324,127.692 248.5,124C 251.334,122.319 254.001,120.486 256.5,118.5 Z"/></g>
<g><path style="opacity:1" fill="#b762d6" d="M 50.5,136.5 C 53.0168,138.077 53.0168,139.91 50.5,142C 41.3979,146.633 33.7313,144.966 27.5,137C 35.1192,128.607 42.7858,128.44 50.5,136.5 Z"/></g>
<g><path style="opacity:1" fill="#7332b0" d="M 111.5,112.5 C 114.986,126.813 111.986,139.48 102.5,150.5C 105.849,144.302 108.349,137.635 110,130.5C 110.667,126.167 110.667,121.833 110,117.5C 105.612,121.222 101.945,125.555 99,130.5C 95.5334,131.819 92.7,133.986 90.5,137C 84.981,138.114 79.481,139.281 74,140.5C 70.241,140.107 66.5743,139.441 63,138.5C 61.264,140.063 59.764,141.73 58.5,143.5C 59.6337,140.101 60.967,136.768 62.5,133.5C 77.0673,133.758 90.4006,129.924 102.5,122C 106.38,119.621 109.38,116.454 111.5,112.5 Z"/></g>
<g><path style="opacity:1" fill="#ce55ef" d="M 50.5,136.5 C 50.5,137.833 50.5,139.167 50.5,140.5C 47.0394,142.079 43.3727,143.079 39.5,143.5C 27.7513,139.339 27.7513,135.672 39.5,132.5C 43.2096,133.852 46.8763,135.185 50.5,136.5 Z"/></g>
<g><path style="opacity:1" fill="#873dd1" d="M 102.5,150.5 C 99.7803,152.248 97.1137,153.914 94.5,155.5C 94.5,156.5 94.5,157.5 94.5,158.5C 90.5101,160.357 86.6768,162.69 83,165.5C 79.6702,166.977 76.1702,167.811 72.5,168C 71.6195,168.708 70.9528,169.542 70.5,170.5C 65.7971,170.563 61.1304,170.229 56.5,169.5C 56.0841,160.722 56.7508,152.056 58.5,143.5C 59.764,141.73 61.264,140.063 63,138.5C 66.5743,139.441 70.241,140.107 74,140.5C 79.481,139.281 84.981,138.114 90.5,137C 92.7,133.986 95.5334,131.819 99,130.5C 101.945,125.555 105.612,121.222 110,117.5C 110.667,121.833 110.667,126.167 110,130.5C 108.349,137.635 105.849,144.302 102.5,150.5 Z"/></g>
<g><path style="opacity:1" fill="#e14c2c" d="M 218.5,148.5 C 217.737,149.268 216.737,149.768 215.5,150C 207.833,150.667 200.167,150.667 192.5,150C 191.584,149.722 190.918,149.222 190.5,148.5C 195.03,148.926 199.197,147.926 203,145.5C 207.801,148.052 212.968,149.052 218.5,148.5 Z"/></g>
<g><path style="opacity:1" fill="#c5503e" d="M 182.5,146.5 C 185.152,146.41 187.485,147.076 189.5,148.5C 186.848,148.59 184.515,147.924 182.5,146.5 Z"/></g>
<g><path style="opacity:1" fill="#b466d5" d="M 43.5,163.5 C 44.1667,159.167 44.8333,154.833 45.5,150.5C 41.0372,150.423 36.7039,151.09 32.5,152.5C 36.6304,149.796 41.297,148.462 46.5,148.5C 47.0834,152.032 46.9167,155.698 46,159.5C 45.3918,161.066 44.5585,162.4 43.5,163.5 Z"/></g>
<g><path style="opacity:1" fill="#d75844" d="M 249.5,148.5 C 251.339,149.508 252.672,151.008 253.5,153C 248.308,159.909 241.975,161.743 234.5,158.5C 239.041,158.948 243.374,158.281 247.5,156.5C 250.562,154.39 251.229,151.723 249.5,148.5 Z"/></g>
<g><path style="opacity:1" fill="#dc5e48" d="M 230.5,150.5 C 230.461,151.583 230.127,152.583 229.5,153.5C 230.554,155.201 231.554,156.868 232.5,158.5C 229.879,157.879 228.212,156.212 227.5,153.5C 227.879,151.787 228.879,150.787 230.5,150.5 Z"/></g>
<g><path style="opacity:1" fill="#f24414" d="M 249.5,148.5 C 251.229,151.723 250.562,154.39 247.5,156.5C 243.374,158.281 239.041,158.948 234.5,158.5C 233.833,158.5 233.167,158.5 232.5,158.5C 231.554,156.868 230.554,155.201 229.5,153.5C 230.127,152.583 230.461,151.583 230.5,150.5C 236.461,145.503 242.794,144.836 249.5,148.5 Z"/></g>
<g><path style="opacity:1" fill="#f77d1a" d="M 218.5,182.5 C 216.199,183.06 213.866,183.56 211.5,184C 212.308,184.308 212.975,184.808 213.5,185.5C 211.207,186.626 209.04,187.959 207,189.5C 191.467,175.595 173.967,172.261 154.5,179.5C 153.957,179.44 153.624,179.107 153.5,178.5C 155.191,175.153 156.858,171.819 158.5,168.5C 159.222,167.449 160.222,166.782 161.5,166.5C 168.14,164.558 173.14,161.224 176.5,156.5C 177.167,156.5 177.833,156.5 178.5,156.5C 188.065,157.37 197.732,157.37 207.5,156.5C 207.5,157.5 207.5,158.5 207.5,159.5C 211.285,160.178 214.951,161.345 218.5,163C 219.38,164.356 219.714,165.856 219.5,167.5C 220.675,167.281 221.675,167.614 222.5,168.5C 220.151,169.557 218.151,171.057 216.5,173C 217.833,173.333 219.167,173.667 220.5,174C 221.022,174.561 221.355,175.228 221.5,176C 219.822,177.875 218.822,180.042 218.5,182.5 Z"/></g>
<g><path style="opacity:1" fill="#e68f48" d="M 176.5,156.5 C 173.14,161.224 168.14,164.558 161.5,166.5C 165.599,161.941 170.599,158.608 176.5,156.5 Z"/></g>
<g><path style="opacity:1" fill="#cc56eb" d="M 43.5,163.5 C 40.7746,164.713 38.4412,166.546 36.5,169C 32.23,170.075 27.8967,170.575 23.5,170.5C 23.5,167.833 23.5,165.167 23.5,162.5C 25.1053,157.896 28.1053,154.562 32.5,152.5C 36.7039,151.09 41.0372,150.423 45.5,150.5C 44.8333,154.833 44.1667,159.167 43.5,163.5 Z"/></g>
<g><path style="opacity:1" fill="#7c51b8" d="M 102.5,150.5 C 94.6974,161.615 84.0307,168.282 70.5,170.5C 70.9528,169.542 71.6195,168.708 72.5,168C 76.1702,167.811 79.6702,166.977 83,165.5C 86.6768,162.69 90.5101,160.357 94.5,158.5C 94.5,157.5 94.5,156.5 94.5,155.5C 97.1137,153.914 99.7803,152.248 102.5,150.5 Z"/></g>
<g><path style="opacity:1" fill="#2a9c83" d="M 112.5,162.5 C 111.5,162.5 110.5,162.5 109.5,162.5C 108.5,162.5 107.5,162.5 106.5,162.5C 100.62,163.806 95.2868,166.306 90.5,170C 89.2068,170.49 87.8734,170.657 86.5,170.5C 91.4174,166.365 97.0841,163.199 103.5,161C 106.772,160.424 109.772,160.924 112.5,162.5 Z"/></g>
<g><path style="opacity:1" fill="#ee812e" d="M 218.5,182.5 C 218.822,180.042 219.822,177.875 221.5,176C 221.355,175.228 221.022,174.561 220.5,174C 219.167,173.667 217.833,173.333 216.5,173C 218.151,171.057 220.151,169.557 222.5,168.5C 221.675,167.614 220.675,167.281 219.5,167.5C 219.714,165.856 219.38,164.356 218.5,163C 214.951,161.345 211.285,160.178 207.5,159.5C 207.5,158.5 207.5,157.5 207.5,156.5C 197.732,157.37 188.065,157.37 178.5,156.5C 197.825,150.393 214.825,154.393 229.5,168.5C 227.25,174.36 223.584,179.027 218.5,182.5 Z"/></g>
<g><path style="opacity:1" fill="#8753be" d="M 58.5,143.5 C 56.7508,152.056 56.0841,160.722 56.5,169.5C 61.1304,170.229 65.7971,170.563 70.5,170.5C 65.63,171.804 60.63,171.804 55.5,170.5C 54.3364,164.528 54.1697,158.528 55,152.5C 55.7249,149.21 56.8916,146.21 58.5,143.5 Z"/></g>
<g><path style="opacity:1" fill="#b864d7" d="M 23.5,162.5 C 23.5,165.167 23.5,167.833 23.5,170.5C 27.8967,170.575 32.23,170.075 36.5,169C 38.4412,166.546 40.7746,164.713 43.5,163.5C 38.3108,171.281 30.9775,174.281 21.5,172.5C 21.5488,168.922 22.2154,165.589 23.5,162.5 Z"/></g>
<g><path style="opacity:1" fill="#05ad75" d="M 106.5,162.5 C 115.994,179.251 116.994,196.585 109.5,214.5C 105.084,224.997 98.0835,233.331 88.5,239.5C 84.8993,240.463 81.2326,241.13 77.5,241.5C 77.5,242.5 77.5,243.5 77.5,244.5C 72.673,245.089 69.0063,243.423 66.5,239.5C 64.7234,236.495 63.7234,233.162 63.5,229.5C 63.5,221.167 63.5,212.833 63.5,204.5C 66.409,189.928 74.0757,178.595 86.5,170.5C 87.8734,170.657 89.2068,170.49 90.5,170C 95.2868,166.306 100.62,163.806 106.5,162.5 Z"/></g>
<g><path style="opacity:1" fill="#d78033" d="M 158.5,168.5 C 156.858,171.819 155.191,175.153 153.5,178.5C 153.624,179.107 153.957,179.44 154.5,179.5C 153.432,180.434 152.099,180.768 150.5,180.5C 151.956,175.707 154.623,171.707 158.5,168.5 Z"/></g>
<g><path style="opacity:1" fill="#2d867a" d="M 56.5,181.5 C 58.9479,180.527 61.6146,180.194 64.5,180.5C 64.8064,183.385 64.4731,186.052 63.5,188.5C 63.5,186.167 63.5,183.833 63.5,181.5C 61.1667,181.5 58.8333,181.5 56.5,181.5 Z"/></g>
<g><path style="opacity:1" fill="#026a4f" d="M 106.5,162.5 C 107.5,162.5 108.5,162.5 109.5,162.5C 111.85,166.542 113.683,170.875 115,175.5C 116.158,175.998 116.991,176.831 117.5,178C 119.725,185.396 121.391,192.896 122.5,200.5C 120.208,207.001 118.541,213.668 117.5,220.5C 119.179,220.285 120.179,220.952 120.5,222.5C 116.656,220.078 112.99,217.411 109.5,214.5C 116.994,196.585 115.994,179.251 106.5,162.5 Z"/></g>
<g><path style="opacity:1" fill="#e6ce59" d="M 254.5,184.5 C 253.153,183.829 251.986,183.829 251,184.5C 248.526,181.725 245.36,180.392 241.5,180.5C 237.554,180.735 233.887,181.735 230.5,183.5C 230.953,182.542 231.619,181.708 232.5,181C 240.682,177.097 248.015,178.264 254.5,184.5 Z"/></g>
<g><path style="opacity:1" fill="#f5cc19" d="M 254.5,184.5 C 254.5,185.833 254.5,187.167 254.5,188.5C 251.358,188.997 248.691,190.331 246.5,192.5C 244.62,192.075 243.12,191.075 242,189.5C 240.437,190.102 240.604,190.935 242.5,192C 241.663,193.011 241.33,194.178 241.5,195.5C 236.709,195.554 232.375,194.22 228.5,191.5C 227.835,189.899 227.501,188.399 227.5,187C 228.71,185.961 229.71,184.794 230.5,183.5C 233.887,181.735 237.554,180.735 241.5,180.5C 245.36,180.392 248.526,181.725 251,184.5C 251.986,183.829 253.153,183.829 254.5,184.5 Z"/></g>
<g><path style="opacity:1" fill="#d36d1d" d="M 218.5,182.5 C 213.688,187.411 208.022,191.078 201.5,193.5C 201.167,192.167 200.833,192.167 200.5,193.5C 187.075,183.151 171.742,178.484 154.5,179.5C 173.967,172.261 191.467,175.595 207,189.5C 209.04,187.959 211.207,186.626 213.5,185.5C 212.975,184.808 212.308,184.308 211.5,184C 213.866,183.56 216.199,183.06 218.5,182.5 Z"/></g>
<g><path style="opacity:1" fill="#08b074" d="M 54.5,196.5 C 53.7095,197.401 52.7095,198.068 51.5,198.5C 50.3915,197.71 49.0581,197.21 47.5,197C 46.9415,196.275 46.6082,195.442 46.5,194.5C 47.8009,189.702 50.4676,185.869 54.5,183C 56.5,182.333 58.5,182.333 60.5,183C 61.5784,183.674 62.2451,184.674 62.5,186C 59.2761,189.638 56.6095,193.138 54.5,196.5 Z"/></g>
<g><path style="opacity:1" fill="#f4c91a" d="M 154.5,179.5 C 171.742,178.484 187.075,183.151 200.5,193.5C 200.833,193.5 201.167,193.5 201.5,193.5C 212.217,204.266 218.55,216.933 220.5,231.5C 219.521,234.625 219.187,237.958 219.5,241.5C 217.585,241.216 215.919,241.549 214.5,242.5C 206.747,242.479 199.08,241.645 191.5,240C 187.452,237.593 183.452,235.093 179.5,232.5C 178.833,232.833 178.167,233.167 177.5,233.5C 175.925,232.544 174.258,231.877 172.5,231.5C 167.083,223.298 161.25,215.298 155,207.5C 154.713,205.109 154.213,202.776 153.5,200.5C 155.152,197.226 155.485,193.892 154.5,190.5C 153.833,190.833 153.167,191.167 152.5,191.5C 151.079,187.973 150.412,184.306 150.5,180.5C 152.099,180.768 153.432,180.434 154.5,179.5 Z"/></g>
<g><path style="opacity:1" fill="#eecc3f" d="M 230.5,183.5 C 229.71,184.794 228.71,185.961 227.5,187C 227.501,188.399 227.835,189.899 228.5,191.5C 232.375,194.22 236.709,195.554 241.5,195.5C 241.33,194.178 241.663,193.011 242.5,192C 240.604,190.935 240.437,190.102 242,189.5C 243.12,191.075 244.62,192.075 246.5,192.5C 248.691,190.331 251.358,188.997 254.5,188.5C 254.5,187.167 254.5,185.833 254.5,184.5C 256.344,185.204 256.844,186.537 256,188.5C 245.573,199.891 234.739,200.057 223.5,189C 225.417,186.577 227.75,184.744 230.5,183.5 Z"/></g>
<g><path style="opacity:1" fill="#2ca885" d="M 56.5,181.5 C 58.8333,181.5 61.1667,181.5 63.5,181.5C 63.5,183.833 63.5,186.167 63.5,188.5C 62.0426,192.96 59.0426,195.627 54.5,196.5C 56.6095,193.138 59.2761,189.638 62.5,186C 62.2451,184.674 61.5784,183.674 60.5,183C 58.5,182.333 56.5,182.333 54.5,183C 50.4676,185.869 47.8009,189.702 46.5,194.5C 46.6082,195.442 46.9415,196.275 47.5,197C 49.0581,197.21 50.3915,197.71 51.5,198.5C 48.4041,199.093 46.0708,198.093 44.5,195.5C 46.0577,188.618 50.0577,183.951 56.5,181.5 Z"/></g>
<g><path style="opacity:1" fill="#c6b260" d="M 222.5,195.5 C 219.5,195.5 216.5,195.5 213.5,195.5C 213.5,197.833 213.5,200.167 213.5,202.5C 212.362,199.696 212.195,196.696 213,193.5C 215,194.833 217,194.833 219,193.5C 220.302,194.085 221.469,194.751 222.5,195.5 Z"/></g>
<g><path style="opacity:1" fill="#f4cc27" d="M 222.5,195.5 C 227.037,197.367 229.704,200.701 230.5,205.5C 230.5,207.167 230.5,208.833 230.5,210.5C 226.277,210.661 222.277,209.994 218.5,208.5C 215.857,207.377 214.19,205.377 213.5,202.5C 213.5,200.167 213.5,197.833 213.5,195.5C 216.5,195.5 219.5,195.5 222.5,195.5 Z"/></g>
<g><path style="opacity:1" fill="#06815d" d="M 109.5,162.5 C 110.5,162.5 111.5,162.5 112.5,162.5C 132.201,168.709 144.035,182.042 148,202.5C 149.193,211.756 148.193,220.756 145,229.5C 144.385,231.116 143.385,232.449 142,233.5C 136.785,231.872 131.619,230.039 126.5,228C 124.163,226.366 122.163,224.533 120.5,222.5C 120.179,220.952 119.179,220.285 117.5,220.5C 118.541,213.668 120.208,207.001 122.5,200.5C 121.391,192.896 119.725,185.396 117.5,178C 116.991,176.831 116.158,175.998 115,175.5C 113.683,170.875 111.85,166.542 109.5,162.5 Z"/></g>
<g><path style="opacity:1" fill="#efda67" d="M 230.5,205.5 C 232.92,210.82 231.254,212.987 225.5,212C 222.719,211.478 220.385,210.311 218.5,208.5C 222.277,209.994 226.277,210.661 230.5,210.5C 230.5,208.833 230.5,207.167 230.5,205.5 Z"/></g>
<g><path style="opacity:1" fill="#2f8c75" d="M 63.5,204.5 C 63.5,212.833 63.5,221.167 63.5,229.5C 62.7757,225.635 62.1091,221.635 61.5,217.5C 62.1136,213.033 62.7803,208.7 63.5,204.5 Z"/></g>
<g><path style="opacity:1" fill="#eacc42" d="M 150.5,180.5 C 150.412,184.306 151.079,187.973 152.5,191.5C 153.167,191.167 153.833,190.833 154.5,190.5C 155.485,193.892 155.152,197.226 153.5,200.5C 154.213,202.776 154.713,205.109 155,207.5C 161.25,215.298 167.083,223.298 172.5,231.5C 155.502,218.519 148.168,201.519 150.5,180.5 Z"/></g>
<g><path style="opacity:1" fill="#f3cc2c" d="M 166.5,236.5 C 166.5,240.167 166.5,243.833 166.5,247.5C 166.719,248.675 166.386,249.675 165.5,250.5C 154.529,245.939 150.862,237.939 154.5,226.5C 160.602,227.266 164.602,230.599 166.5,236.5 Z"/></g>
<g><path style="opacity:1" fill="#2ba383" d="M 102.5,232.5 C 102.34,234.199 102.506,235.866 103,237.5C 104.422,237.594 105.922,237.928 107.5,238.5C 106.009,239.244 104.509,239.91 103,240.5C 102.505,242.473 102.338,244.473 102.5,246.5C 103.833,246.5 105.167,246.5 106.5,246.5C 104.689,248.983 102.855,248.983 101,246.5C 100.333,242.5 100.333,238.5 101,234.5C 101.278,233.584 101.778,232.918 102.5,232.5 Z"/></g>
<g><path style="opacity:1" fill="#03ad72" d="M 106.5,246.5 C 105.167,246.5 103.833,246.5 102.5,246.5C 102.338,244.473 102.505,242.473 103,240.5C 104.509,239.91 106.009,239.244 107.5,238.5C 105.922,237.928 104.422,237.594 103,237.5C 102.506,235.866 102.34,234.199 102.5,232.5C 104.781,231.392 106.948,230.058 109,228.5C 109.483,229.448 109.649,230.448 109.5,231.5C 113.454,232.807 114.454,235.474 112.5,239.5C 109.471,241 107.471,243.333 106.5,246.5 Z"/></g>
<g><path style="opacity:1" fill="#edd349" d="M 172.5,231.5 C 174.258,231.877 175.925,232.544 177.5,233.5C 178.167,233.167 178.833,232.833 179.5,232.5C 183.452,235.093 187.452,237.593 191.5,240C 199.08,241.645 206.747,242.479 214.5,242.5C 198.909,244.971 184.909,241.304 172.5,231.5 Z"/></g>
<g><path style="opacity:1" fill="#19a97b" d="M 126.5,236.5 C 138.098,243.709 140.598,253.376 134,265.5C 132.122,264.947 130.622,263.947 129.5,262.5C 124.531,260.865 121.198,257.531 119.5,252.5C 119.334,247.821 119.501,243.155 120,238.5C 121.754,236.75 123.921,236.083 126.5,236.5 Z"/></g>
<g><path style="opacity:1" fill="#02af72" d="M 129.5,262.5 C 127.218,259.896 125.884,256.896 125.5,253.5C 124.5,253.5 123.5,253.5 122.5,253.5C 122.649,252.448 122.483,251.448 122,250.5C 121.667,250.833 121.333,251.167 121,251.5C 119.637,245.833 120.637,244.833 124,248.5C 124.5,247.333 125.333,246.5 126.5,246C 125.788,244.575 125.621,243.075 126,241.5C 125.097,240.299 123.931,239.465 122.5,239C 123.872,238.598 125.205,238.098 126.5,237.5C 127.567,239.559 128.9,241.392 130.5,243C 129.446,244.388 129.28,245.888 130,247.5C 130.308,246.692 130.808,246.025 131.5,245.5C 132.77,246.562 133.937,247.562 135,248.5C 135.978,251.669 135.478,254.503 133.5,257C 134.406,258.699 134.739,260.533 134.5,262.5C 132.833,262.5 131.167,262.5 129.5,262.5 Z"/></g>
<g><path style="opacity:1" fill="#d2b65f" d="M 220.5,231.5 C 220.823,235.226 220.489,238.893 219.5,242.5C 217.872,243.535 216.205,243.535 214.5,242.5C 215.919,241.549 217.585,241.216 219.5,241.5C 219.187,237.958 219.521,234.625 220.5,231.5 Z"/></g>
<g><path style="opacity:1" fill="#30a480" d="M 106.5,246.5 C 107.471,243.333 109.471,241 112.5,239.5C 114.454,235.474 113.454,232.807 109.5,231.5C 109.649,230.448 109.483,229.448 109,228.5C 106.948,230.058 104.781,231.392 102.5,232.5C 104.325,229.177 106.992,226.677 110.5,225C 111.996,224.493 113.163,224.993 114,226.5C 117.095,235.392 114.595,242.058 106.5,246.5 Z"/></g>
<g><path style="opacity:1" fill="#38937d" d="M 126.5,236.5 C 123.921,236.083 121.754,236.75 120,238.5C 119.501,243.155 119.334,247.821 119.5,252.5C 118.35,247.684 118.184,242.684 119,237.5C 121.042,233.866 123.542,233.532 126.5,236.5 Z"/></g>
<g><path style="opacity:1" fill="#f0e16e" d="M 166.5,236.5 C 169.167,240.167 169.167,243.833 166.5,247.5C 166.5,243.833 166.5,240.167 166.5,236.5 Z"/></g>
<g><path style="opacity:1" fill="#3da887" d="M 66.5,239.5 C 69.0063,243.423 72.673,245.089 77.5,244.5C 77.5,243.5 77.5,242.5 77.5,241.5C 81.2326,241.13 84.8993,240.463 88.5,239.5C 83.1656,243.081 77.3322,245.748 71,247.5C 68.6963,245.22 67.1963,242.554 66.5,239.5 Z"/></g>
</svg>
